<svg width="195" height="195" viewBox="0 0 195 195" fill="none" xmlns="http://www.w3.org/2000/svg">
<path d="M0 0H145C172.614 0 195 22.3858 195 50V195H50C22.3858 195 0 172.614 0 145V0Z" fill="#00695F"/>
<g filter="url(#filter0_d_149_713)">
<path d="M139.856 96.04C132.944 111.208 129.488 127.576 129.488 145.144C126.896 146.968 123.68 147.88 119.84 147.88C116.096 147.88 113.024 146.968 110.624 145.144C108.224 143.416 106.784 141.64 106.304 139.816C103.904 142.312 100.736 144.28 96.8 145.72C92.96 147.16 88.976 147.88 84.848 147.88C80.72 147.88 76.832 147.208 73.184 145.864C69.632 144.52 66.464 142.36 63.68 139.384C57.536 132.856 54.464 123.4 54.464 111.016C54.464 91.816 59.6 76.456 69.872 64.936C80.432 53.032 95.072 47.08 113.792 47.08C126.752 47.08 135.536 50.44 140.144 57.16C141.584 59.272 142.304 61.624 142.304 64.216C142.304 66.712 141.728 69.064 140.576 71.272C139.52 73.384 138.128 75.304 136.4 77.032C132.272 80.872 127.664 82.792 122.576 82.792C120.56 82.792 118.592 82.456 116.672 81.784C117.056 78.904 117.248 75.784 117.248 72.424C117.248 69.064 117.104 66.616 116.816 65.08C116.624 63.544 116.24 62.152 115.664 60.904C114.416 58.312 112.4 57.016 109.616 57.016C106.928 57.016 104.048 58.504 100.976 61.48C98 64.36 95.312 68.2 92.912 73C87.632 83.752 84.992 95.608 84.992 108.568C84.992 114.52 86.144 119.608 88.448 123.832C90.944 128.44 94.4 130.744 98.816 130.744C100.352 130.744 101.792 130.36 103.136 129.592C104.576 128.824 105.584 128.152 106.16 127.576L110.768 98.632L139.856 96.04Z" fill="white"/>
</g>
<defs>
<filter id="filter0_d_149_713" x="50.4641" y="47.0801" width="95.8398" height="108.8" filterUnits="userSpaceOnUse" color-interpolation-filters="sRGB">
<feFlood flood-opacity="0" result="BackgroundImageFix"/>
<feColorMatrix in="SourceAlpha" type="matrix" values="0 0 0 0 0 0 0 0 0 0 0 0 0 0 0 0 0 0 127 0" result="hardAlpha"/>
<feOffset dy="4"/>
<feGaussianBlur stdDeviation="2"/>
<feComposite in2="hardAlpha" operator="out"/>
<feColorMatrix type="matrix" values="0 0 0 0 0 0 0 0 0 0 0 0 0 0 0 0 0 0 0.25 0"/>
<feBlend mode="normal" in2="BackgroundImageFix" result="effect1_dropShadow_149_713"/>
<feBlend mode="normal" in="SourceGraphic" in2="effect1_dropShadow_149_713" result="shape"/>
</filter>
</defs>
</svg>
