<svg width="177" height="202" viewBox="0 0 177 202" fill="none" xmlns="http://www.w3.org/2000/svg">
<path d="M171.712 98.08C157.888 128.416 150.976 161.152 150.976 196.288C145.792 199.936 139.36 201.76 131.68 201.76C124.192 201.76 118.048 199.936 113.248 196.288C108.448 192.832 105.568 189.28 104.608 185.632C99.808 190.624 93.472 194.56 85.6 197.44C77.92 200.32 69.952 201.76 61.696 201.76C53.44 201.76 45.664 200.416 38.368 197.728C31.264 195.04 24.928 190.72 19.36 184.768C7.072 171.712 0.928 152.8 0.928 128.032C0.928 89.632 11.2 58.912 31.744 35.872C52.864 12.064 82.144 0.159998 119.584 0.159998C145.504 0.159998 163.072 6.88 172.288 20.32C175.168 24.544 176.608 29.248 176.608 34.432C176.608 39.424 175.456 44.128 173.152 48.544C171.04 52.768 168.256 56.608 164.8 60.064C156.544 67.744 147.328 71.584 137.152 71.584C133.12 71.584 129.184 70.912 125.344 69.568C126.112 63.808 126.496 57.568 126.496 50.848C126.496 44.128 126.208 39.232 125.632 36.16C125.248 33.088 124.48 30.304 123.328 27.808C120.832 22.624 116.8 20.032 111.232 20.032C105.856 20.032 100.096 23.008 93.952 28.96C88 34.72 82.624 42.4 77.824 52C67.264 73.504 61.984 97.216 61.984 123.136C61.984 135.04 64.288 145.216 68.896 153.664C73.888 162.88 80.8 167.488 89.632 167.488C92.704 167.488 95.584 166.72 98.272 165.184C101.152 163.648 103.168 162.304 104.32 161.152L113.536 103.264L171.712 98.08Z" fill="white"/>
</svg>
