<svg width="30" height="34" viewBox="0 0 30 34" fill="none" xmlns="http://www.w3.org/2000/svg">
<path d="M28.952 16.68C26.648 21.736 25.496 27.192 25.496 33.048C24.632 33.656 23.56 33.96 22.28 33.96C21.032 33.96 20.008 33.656 19.208 33.048C18.408 32.472 17.928 31.88 17.768 31.272C16.968 32.104 15.912 32.76 14.6 33.24C13.32 33.72 11.992 33.96 10.616 33.96C9.24 33.96 7.944 33.736 6.728 33.288C5.544 32.84 4.488 32.12 3.56 31.128C1.512 28.952 0.488 25.8 0.488 21.672C0.488 15.272 2.2 10.152 5.624 6.312C9.144 2.344 14.024 0.36 20.264 0.36C24.584 0.36 27.512 1.48 29.048 3.72C29.528 4.424 29.768 5.208 29.768 6.072C29.768 6.904 29.576 7.688 29.192 8.424C28.84 9.128 28.376 9.768 27.8 10.344C26.424 11.624 24.888 12.264 23.192 12.264C22.52 12.264 21.864 12.152 21.224 11.928C21.352 10.968 21.416 9.928 21.416 8.808C21.416 7.688 21.368 6.872 21.272 6.36C21.208 5.848 21.08 5.384 20.888 4.968C20.472 4.104 19.8 3.672 18.872 3.672C17.976 3.672 17.016 4.168 15.992 5.16C15 6.12 14.104 7.4 13.304 9C11.544 12.584 10.664 16.536 10.664 20.856C10.664 22.84 11.048 24.536 11.816 25.944C12.648 27.48 13.8 28.248 15.272 28.248C15.784 28.248 16.264 28.12 16.712 27.864C17.192 27.608 17.528 27.384 17.72 27.192L19.256 17.544L28.952 16.68Z" fill="#006157"/>
</svg>
