<svg width="140" height="141" viewBox="0 0 140 141" fill="none" xmlns="http://www.w3.org/2000/svg">
<rect width="140" height="141" fill="#009688"/>
<path d="M70 67.2826C77.5219 67.2826 83.6415 61.1633 83.6415 53.6413C83.6415 46.1193 77.5219 40 70 40C62.478 40 56.3585 46.1193 56.3585 53.6413C56.3585 61.1633 62.478 67.2826 70 67.2826ZM70 46.5217C73.9259 46.5217 77.1198 49.7154 77.1198 53.6413C77.1198 57.5672 73.9259 60.7609 70 60.7609C66.0741 60.7609 62.8802 57.5672 62.8802 53.6413C62.8802 49.7154 66.0741 46.5217 70 46.5217Z" fill="white"/>
<path d="M70 73.8044C56.215 73.8044 45 85.0194 45 98.8044C45 100.605 46.46 102.065 48.2609 102.065H91.7391C93.54 102.065 95 100.605 95 98.8044C95 85.0194 83.785 73.8044 70 73.8044ZM51.8098 95.5435C53.3546 86.9046 60.9235 80.3261 70 80.3261C79.0765 80.3261 86.6454 86.9046 88.1902 95.5435H51.8098Z" fill="white"/>
</svg>
