<svg width="245" height="300" viewBox="0 0 245 300" fill="none" xmlns="http://www.w3.org/2000/svg">
<rect width="245" height="300" fill="#009688"/>
<path d="M122.835 144.925C133.016 144.925 141.298 136.643 141.298 126.462C141.298 116.282 133.016 108 122.835 108C112.655 108 104.373 116.282 104.373 126.462C104.373 136.643 112.655 144.925 122.835 144.925ZM122.835 116.827C128.149 116.827 132.471 121.149 132.471 126.462C132.471 131.776 128.149 136.098 122.835 136.098C117.522 136.098 113.199 131.776 113.199 126.462C113.199 121.149 117.522 116.827 122.835 116.827Z" fill="white"/>
<path d="M122.835 153.751C104.179 153.751 89 168.93 89 187.587C89 190.024 90.976 192 93.4133 192H152.257C154.695 192 156.671 190.024 156.671 187.587C156.671 168.93 141.492 153.751 122.835 153.751ZM98.2165 183.173C100.307 171.481 110.551 162.578 122.835 162.578C135.12 162.578 145.364 171.481 147.454 183.173H98.2165Z" fill="white"/>
</svg>
